<svg xmlns="http://www.w3.org/2000/svg" width="16" height="16" viewBox="0 0 16 16">
  <!-- QR Code icon -->
  <rect x="1" y="1" width="3" height="3" fill="currentColor"/>
  <rect x="5" y="1" width="1" height="1" fill="currentColor"/>
  <rect x="7" y="1" width="2" height="1" fill="currentColor"/>
  <rect x="12" y="1" width="3" height="3" fill="currentColor"/>

  <rect x="2" y="2" width="1" height="1" fill="white"/>
  <rect x="13" y="2" width="1" height="1" fill="white"/>

  <rect x="1" y="5" width="1" height="1" fill="currentColor"/>
  <rect x="3" y="5" width="1" height="1" fill="currentColor"/>
  <rect x="5" y="5" width="2" height="1" fill="currentColor"/>
  <rect x="8" y="5" width="1" height="1" fill="currentColor"/>
  <rect x="11" y="5" width="1" height="1" fill="currentColor"/>
  <rect x="14" y="5" width="1" height="1" fill="currentColor"/>

  <rect x="1" y="6" width="1" height="1" fill="currentColor"/>
  <rect x="6" y="6" width="1" height="1" fill="currentColor"/>
  <rect x="9" y="6" width="2" height="1" fill="currentColor"/>
  <rect x="13" y="6" width="1" height="1" fill="currentColor"/>
  <rect x="15" y="6" width="1" height="1" fill="currentColor"/>

  <rect x="1" y="7" width="3" height="1" fill="currentColor"/>
  <rect x="5" y="7" width="1" height="1" fill="currentColor"/>
  <rect x="7" y="7" width="3" height="1" fill="currentColor"/>
  <rect x="12" y="7" width="1" height="1" fill="currentColor"/>
  <rect x="14" y="7" width="2" height="1" fill="currentColor"/>

  <rect x="6" y="8" width="1" height="1" fill="currentColor"/>
  <rect x="9" y="8" width="1" height="1" fill="currentColor"/>
  <rect x="11" y="8" width="1" height="1" fill="currentColor"/>
  <rect x="13" y="8" width="1" height="1" fill="currentColor"/>

  <rect x="2" y="9" width="2" height="1" fill="currentColor"/>
  <rect x="6" y="9" width="2" height="1" fill="currentColor"/>
  <rect x="10" y="9" width="1" height="1" fill="currentColor"/>
  <rect x="12" y="9" width="1" height="1" fill="currentColor"/>
  <rect x="15" y="9" width="1" height="1" fill="currentColor"/>

  <rect x="1" y="10" width="1" height="1" fill="currentColor"/>
  <rect x="5" y="10" width="1" height="1" fill="currentColor"/>
  <rect x="8" y="10" width="3" height="1" fill="currentColor"/>
  <rect x="13" y="10" width="3" height="1" fill="currentColor"/>

  <rect x="1" y="12" width="3" height="3" fill="currentColor"/>
  <rect x="5" y="12" width="1" height="1" fill="currentColor"/>
  <rect x="7" y="12" width="1" height="1" fill="currentColor"/>
  <rect x="9" y="12" width="1" height="1" fill="currentColor"/>
  <rect x="11" y="12" width="2" height="1" fill="currentColor"/>
  <rect x="14" y="12" width="1" height="1" fill="currentColor"/>

  <rect x="2" y="13" width="1" height="1" fill="white"/>
  <rect x="6" y="13" width="1" height="1" fill="currentColor"/>
  <rect x="8" y="13" width="1" height="1" fill="currentColor"/>
  <rect x="10" y="13" width="1" height="1" fill="currentColor"/>
  <rect x="15" y="13" width="1" height="1" fill="currentColor"/>

  <rect x="5" y="14" width="2" height="1" fill="currentColor"/>
  <rect x="8" y="14" width="1" height="1" fill="currentColor"/>
  <rect x="11" y="14" width="1" height="1" fill="currentColor"/>
  <rect x="13" y="14" width="3" height="1" fill="currentColor"/>
</svg>